<?xml version="1.0" encoding="UTF-8"?>
<svg id="Calque_1" data-name="Calque 1" xmlns="http://www.w3.org/2000/svg" viewBox="0 0 182.69 38.91">
  <defs>
    <style>
      .cls-1 {
        fill: #005f48;
      }
    </style>
  </defs>
  <path class="cls-1" d="M23.37,12.16v1.22s2.43,0,2.43,0v2.44s1.22,0,1.22,0v7.3s-1.22,0-1.22,0v1.22s-1.21,0-1.21,0v1.22s-1.21,0-1.21,0v1.22s-7.28,0-7.28,0v-1.22s-1.22,0-1.22,0v-1.22s-1.21,0-1.21,0v-1.22s-1.21,0-1.21,0v-7.3h1.22s0-2.43,0-2.43h2.43s0-1.21,0-1.21h7.28ZM22.16,14.59h-4.86v1.22s-1.22,0-1.22,0v1.22s-1.21,0-1.21,0v4.87h1.22s0,1.22,0,1.22h1.22s0,1.22,0,1.22h4.86v-1.22s1.22,0,1.22,0v-1.22s1.21,0,1.21,0v-4.87h-1.22s0-1.22,0-1.22h-1.22s0-1.22,0-1.22Z"/>
  <path d="M80.57,15.5c.68.21.43,1.83.45,2.43h2.13s0,8.81,0,8.81h-2.43v-8.82h-4.25v8.82h-2.43v-8.82h-3.95v8.82h-2.43v-11.25h12.9Z"/>
  <path d="M99.39,15.5c.68.21.43,1.83.45,2.43h2.13s0,8.81,0,8.81h-2.43v-8.82h-4.25v8.82h-2.43v-8.82h-3.95v8.82h-2.43v-11.25h12.9Z"/>
  <path d="M51.61,17c-.39-1.9-1.73-2.27-3.51-2.11-3.27.29-3.89,3.71-3.42,6.46.68,4.02,6.01,4.6,7.38.82l1.94.64c-1.14,5.1-8.96,5.3-11.14.66-3.83-8.17,5.85-15.33,11.14-7.51l-2.39,1.04Z"/>
  <path d="M135.66,16.41l-1.94.59c-4.02-5.37-9.17-.05-6.92,5.4,1.29,3.11,6.02,3.16,6.75-.2l2.41.6c-.69,2.01-2.07,3.42-4.23,3.81-10.65,1.91-10.53-15.94.3-13.71,1.65.34,3.53,1.75,3.62,3.51Z"/>
  <path d="M169.34,22.19c.18,2.14,2.12,3.27,4.12,2.45.61-.25,1.27-1.14,1.49-1.15.1,0,1.84.5,1.66.97-.96,1.62-2.83,2.39-4.7,2.31-7.1-.3-6.57-12.3,1.76-10.59,2.28.47,4.18,4.05,2.8,6.01h-7.13ZM174.5,20.37c-.15-3.41-4.87-3.14-5.16,0h5.16Z"/>
  <path d="M59.1,16.18c8.83-1.64,8.6,11.55.56,10.54-5.48-.69-5.55-9.62-.56-10.54ZM59.7,18c-2.77.62-2.96,7.49,1.37,6.87,3.42-.49,3.22-7.9-1.37-6.87Z"/>
  <path d="M113.2,13.37v2.74s3.34,0,3.34,0l-.29,2-3.06.13c.23,1.16-.36,5.4.13,6.1.67.95,2.83-.56,3.16.49.4,1.28-.46,1.75-1.64,1.91-5.67.76-3.8-4.87-4.08-8.49-3,.58-3-2.71,0-2.12l.03-2.4,2.39-.34Z"/>
  <path d="M159.63,19.15l-1.94.57c-2.8-4.56-6.84.16-4.81,3.91.74,1.36,3.21,1.71,4.24.61.84-.9-.23-1.61,2.5-.83-.9,5.14-8.85,4.09-9.41-.76-.2-1.75-.05-3.83,1.22-5.16,2.24-2.36,7.54-1.87,8.19,1.66Z"/>
  <path d="M164.18,24.47c.22.71,1.6.49,2.12.15l-.04,1.78c-1.14.88-4.51.18-4.51-1.32v-13.53l1.93.05.5.41v12.46Z"/>
  <path d="M142.94,16.57l2.13-.46.15,1.52c1.04-1.36,2.67-2.07,4.27-1.22.03,2.59-1.36,1.44-2.83,2.06-.38.16-1.29,1.14-1.29,1.44v6.54h-2.43v-9.88Z"/>
  <rect x="104.7" y="16.11" width="2.43" height="10.34"/>
  <rect x="137.78" y="16.11" width="2.43" height="10.34"/>
  <polygon class="cls-1" points="10.02 7.29 10.01 8.51 11.23 8.51 11.23 9.73 12.45 9.72 12.44 10.95 13.66 10.94 13.66 12.16 12.44 12.16 12.44 13.38 11.23 13.38 11.23 12.16 10.01 12.16 10.02 10.94 8.8 10.95 8.8 9.72 7.58 9.73 7.59 7.29 10.02 7.29"/>
  <polygon class="cls-1" points="31.87 7.29 31.87 9.73 30.65 9.72 30.65 10.95 29.43 10.94 29.44 12.16 28.22 12.16 28.22 13.38 27.01 13.38 27.01 12.16 25.79 12.16 25.79 10.94 27.01 10.95 27.01 9.72 28.23 9.73 28.22 8.51 29.44 8.51 29.44 7.29 31.87 7.29"/>
  <polygon class="cls-1" points="12.44 25.53 12.44 26.75 13.66 26.75 13.66 27.97 12.44 27.96 12.45 29.19 11.23 29.18 11.23 30.4 10.01 30.4 10.02 31.62 7.59 31.62 7.58 29.18 8.8 29.19 8.8 27.96 10.02 27.97 10.01 26.75 11.23 26.75 11.23 25.53 12.44 25.53"/>
  <polygon class="cls-1" points="28.22 25.53 28.22 26.75 29.44 26.75 29.43 27.97 30.65 27.96 30.65 29.19 31.87 29.18 31.87 31.62 29.44 31.62 29.44 30.4 28.22 30.4 28.23 29.18 27.01 29.19 27.01 27.96 25.79 27.97 25.79 26.75 27.01 26.75 27.01 25.53 28.22 25.53"/>
  <rect class="cls-1" x="18.51" y="3.65" width="2.43" height="6.08"/>
  <rect class="cls-1" x="3.95" y="18.24" width="6.07" height="2.43"/>
  <rect class="cls-1" x="29.44" y="18.24" width="6.07" height="2.43"/>
  <rect class="cls-1" x="18.51" y="29.18" width="2.43" height="6.08"/>
  <rect x="104.7" y="11.85" width="2.43" height="2.43"/>
  <rect x="137.78" y="11.85" width="2.43" height="2.43"/>
</svg>