<?xml version="1.0" encoding="UTF-8" standalone="no"?>
<!DOCTYPE svg PUBLIC "-//W3C//DTD SVG 1.1//EN" "http://www.w3.org/Graphics/SVG/1.1/DTD/svg11.dtd">
<svg width="100%" height="100%" viewBox="0 0 38 41" version="1.1" xmlns="http://www.w3.org/2000/svg" xmlns:xlink="http://www.w3.org/1999/xlink" xml:space="preserve" xmlns:serif="http://www.serif.com/" style="fill-rule:evenodd;clip-rule:evenodd;stroke-linejoin:round;stroke-miterlimit:2;">
    <g id="ArtBoard1" transform="matrix(1,0,0,1,-0.166119,0.02226)">
        <rect x="0.166" y="-0.022" width="37.986" height="40.601" style="fill:none;"/>
        <g transform="matrix(1,0,0,1,0.166119,0.97774)">
            <path d="M23.37,12.16L23.37,13.38L25.8,13.38L25.8,15.82L27.02,15.82L27.02,23.12L25.8,23.12L25.8,24.34L24.59,24.34L24.59,25.56L23.38,25.56L23.38,26.78L16.1,26.78L16.1,25.56L14.88,25.56L14.88,24.34L13.67,24.34L13.67,23.12L12.46,23.12L12.46,15.82L13.68,15.82L13.68,13.39L16.11,13.39L16.11,12.18L23.39,12.18L23.37,12.16ZM22.16,14.59L17.3,14.59L17.3,15.81L16.08,15.81L16.08,17.03L14.87,17.03L14.87,21.9L16.09,21.9L16.09,23.12L17.31,23.12L17.31,24.34L22.17,24.34L22.17,23.12L23.39,23.12L23.39,21.9L24.6,21.9L24.6,17.03L23.38,17.03L23.38,15.81L22.16,15.81L22.16,14.59Z" style="fill:rgb(0,95,72);fill-rule:nonzero;"/>
        </g>
        <g transform="matrix(1,0,0,1,0.166119,0.97774)">
            <path d="M10.02,7.29L10.01,8.51L11.23,8.51L11.23,9.73L12.45,9.72L12.44,10.95L13.66,10.94L13.66,12.16L12.44,12.16L12.44,13.38L11.23,13.38L11.23,12.16L10.01,12.16L10.02,10.94L8.8,10.95L8.8,9.72L7.58,9.73L7.59,7.29L10.02,7.29Z" style="fill:rgb(0,95,72);fill-rule:nonzero;"/>
        </g>
        <g transform="matrix(1,0,0,1,0.166119,0.97774)">
            <path d="M31.87,7.29L31.87,9.73L30.65,9.72L30.65,10.95L29.43,10.94L29.44,12.16L28.22,12.16L28.22,13.38L27.01,13.38L27.01,12.16L25.79,12.16L25.79,10.94L27.01,10.95L27.01,9.72L28.23,9.73L28.22,8.51L29.44,8.51L29.44,7.29L31.87,7.29Z" style="fill:rgb(0,95,72);fill-rule:nonzero;"/>
        </g>
        <g transform="matrix(1,0,0,1,0.166119,0.97774)">
            <path d="M12.44,25.53L12.44,26.75L13.66,26.75L13.66,27.97L12.44,27.96L12.45,29.19L11.23,29.18L11.23,30.4L10.01,30.4L10.02,31.62L7.59,31.62L7.58,29.18L8.8,29.19L8.8,27.96L10.02,27.97L10.01,26.75L11.23,26.75L11.23,25.53L12.44,25.53Z" style="fill:rgb(0,95,72);fill-rule:nonzero;"/>
        </g>
        <g transform="matrix(1,0,0,1,0.166119,0.97774)">
            <path d="M28.22,25.53L28.22,26.75L29.44,26.75L29.43,27.97L30.65,27.96L30.65,29.19L31.87,29.18L31.87,31.62L29.44,31.62L29.44,30.4L28.22,30.4L28.23,29.18L27.01,29.19L27.01,27.96L25.79,27.97L25.79,26.75L27.01,26.75L27.01,25.53L28.22,25.53Z" style="fill:rgb(0,95,72);fill-rule:nonzero;"/>
        </g>
        <g transform="matrix(1,0,0,1,0.166119,0.97774)">
            <rect x="18.51" y="3.65" width="2.43" height="6.08" style="fill:rgb(0,95,72);"/>
        </g>
        <g transform="matrix(1,0,0,1,0.166119,0.97774)">
            <rect x="3.95" y="18.24" width="6.07" height="2.43" style="fill:rgb(0,95,72);"/>
        </g>
        <g transform="matrix(1,0,0,1,0.166119,0.97774)">
            <rect x="29.44" y="18.24" width="6.07" height="2.43" style="fill:rgb(0,95,72);"/>
        </g>
        <g transform="matrix(1,0,0,1,0.166119,0.97774)">
            <rect x="18.51" y="29.18" width="2.43" height="6.08" style="fill:rgb(0,95,72);"/>
        </g>
    </g>
</svg>
